<?xml version="1.0" encoding="UTF-8" standalone="no"?>
<!DOCTYPE svg PUBLIC "-//W3C//DTD SVG 1.1//EN"
 "http://www.w3.org/Graphics/SVG/1.1/DTD/svg11.dtd">
<!-- Generated by graphviz version 2.40.1 (20161225.0304)
 -->
<!-- Title: mediation Pages: 1 -->
<svg width="739pt" height="243pt"
 viewBox="36.00 36.00 702.75 207.00" xmlns="http://www.w3.org/2000/svg" xmlns:xlink="http://www.w3.org/1999/xlink">
<g id="graph0" class="graph" transform="scale(1 1) rotate(0) translate(40 203)">
<title>mediation</title>
<polygon fill="#ffffff" stroke="transparent" points="-4,4 -4,-167 662.7464,-167 662.7464,4 -4,4"/>
<text text-anchor="start" x="154.1593" y="-11.3" font-family="Arial" font-size="12.00" fill="#000000"> &#160;&#160;&#160;&#160;&#160;&#160;&#160;&#160;&#160;&#160;&#160;</text>
<text text-anchor="start" x="194.1769" y="-11.3" font-family="Arial" font-style="italic" font-size="18.00" fill="#000000">Sexual Strategies Mediation Model</text>
<text text-anchor="start" x="472.2391" y="-11.3" font-family="Arial" font-size="12.00" fill="#000000"> &#160;&#160;&#160;&#160;&#160;&#160;&#160;&#160;&#160;</text>
<!-- A -->
<g id="node1" class="node">
<title>A</title>
<defs>
<linearGradient id="l_0" gradientUnits="userSpaceOnUse" x1="-.0854" y1="-62" x2="182.256" y2="-62" >
<stop offset="0" style="stop-color:#0055a4;stop-opacity:1.;"/>
<stop offset="1" style="stop-color:#000000;stop-opacity:1.;"/>
</linearGradient>
</defs>
<ellipse fill="url(#l_0)" stroke="#000000" cx="91.0853" cy="-62" rx="91.1707" ry="29"/>
<text text-anchor="middle" x="91.0853" y="-58.4" font-family="Arial" font-size="12.00" fill="#ffffff">Pathogen Disgust Sensitivity</text>
</g>
<!-- B -->
<g id="node2" class="node">
<title>B</title>
<defs>
<linearGradient id="l_1" gradientUnits="userSpaceOnUse" x1="246.6051" y1="-134" x2="450.3119" y2="-134" >
<stop offset="0" style="stop-color:#0055a4;stop-opacity:1.;"/>
<stop offset="1" style="stop-color:#000000;stop-opacity:1.;"/>
</linearGradient>
</defs>
<ellipse fill="url(#l_1)" stroke="#000000" cx="348.4585" cy="-134" rx="101.8534" ry="29"/>
<text text-anchor="middle" x="348.4585" y="-130.4" font-family="Arial" font-size="12.00" fill="#ffffff">Restricted Sociosexual Attitudes</text>
</g>
<!-- A&#45;&gt;B -->
<g id="edge1" class="edge">
<title>A&#45;&gt;B</title>
<path fill="none" stroke="#000000" stroke-width="1.5" d="M159.7185,-81.2001C191.6881,-90.1436 230.0319,-100.8702 263.7834,-110.3122"/>
<polygon fill="#000000" stroke="#000000" stroke-width="1.5" points="262.8244,-114.4051 275.5123,-113.5933 265.0875,-106.3157 262.8244,-114.4051"/>
<text text-anchor="middle" x="214.3512" y="-105.6" font-family="Arial" font-size="12.00" fill="#000000">a = 0.22*</text>
</g>
<!-- C -->
<g id="node3" class="node">
<title>C</title>
<defs>
<linearGradient id="l_2" gradientUnits="userSpaceOnUse" x1="514.7464" y1="-62" x2="658.7464" y2="-62" >
<stop offset="0" style="stop-color:#0055a4;stop-opacity:1.;"/>
<stop offset="1" style="stop-color:#000000;stop-opacity:1.;"/>
</linearGradient>
</defs>
<ellipse fill="url(#l_2)" stroke="#000000" cx="586.7464" cy="-62" rx="72" ry="29"/>
<text text-anchor="middle" x="586.7464" y="-58.4" font-family="Arial" font-size="12.00" fill="#ffffff">Religiosity</text>
</g>
<!-- A&#45;&gt;C -->
<g id="edge3" class="edge">
<title>A&#45;&gt;C</title>
<path fill="none" stroke="#000000" stroke-width="1.5" d="M182.2858,-62C273.7475,-62 413.4359,-62 502.3938,-62"/>
<polygon fill="#000000" stroke="#000000" stroke-width="1.5" points="502.5992,-66.2001 514.5992,-62 502.5992,-57.8001 502.5992,-66.2001"/>
<text text-anchor="middle" x="348.4585" y="-65.6" font-family="Arial" font-size="12.00" fill="#000000">c` = 0.16*</text>
</g>
<!-- A&#45;&gt;C -->
<g id="edge4" class="edge">
<title>A&#45;&gt;C</title>
<path fill="none" stroke="#000000" stroke-width="1.5" stroke-dasharray="5,2" d="M172.3509,-48.6767C196.1854,-45.3486 222.3433,-42.2572 246.5318,-40.6 336.9214,-34.4073 360.058,-33.5553 450.3852,-40.6 469.5843,-42.0974 490.1669,-44.7634 509.3724,-47.7169"/>
<polygon fill="#000000" stroke="#000000" stroke-width="1.5" points="508.9349,-51.9 521.4457,-49.6372 510.2544,-43.6043 508.9349,-51.9"/>
<text text-anchor="middle" x="348.4585" y="-43.6" font-family="Arial" font-size="12.00" fill="#000000">c = 0.24*</text>
</g>
<!-- B&#45;&gt;C -->
<g id="edge2" class="edge">
<title>B&#45;&gt;C</title>
<path fill="none" stroke="#000000" stroke-width="1.5" d="M418.3426,-112.8841C449.5161,-103.4649 486.1502,-92.3957 517.2751,-82.9911"/>
<polygon fill="#000000" stroke="#000000" stroke-width="1.5" points="518.6392,-86.9666 528.9115,-79.4751 516.2095,-78.9256 518.6392,-86.9666"/>
<text text-anchor="middle" x="482.5658" y="-103.6" font-family="Arial" font-size="12.00" fill="#000000">b = 0.37*</text>
</g>
</g>
</svg>

